<svg width="21" height="21" viewBox="0 0 21 21" fill="none" xmlns="http://www.w3.org/2000/svg">
<path d="M6.27023 4.49843C4.49957 4.68633 3.13341 6.46506 2.5957 7.54564C0.114601 12.5424 6.52773 20.4777 8.85588 19.9483C9.21107 19.8677 9.57884 19.5719 10.3908 19.4954C11.5186 19.389 12.1235 19.8381 12.8047 19.9166C14.2876 20.0878 15.629 18.4402 16.5688 17.2862C17.6288 15.9845 20.7127 12.1977 19.5395 8.14728C19.3489 7.49005 18.8635 5.8126 17.2831 4.89307C17.1809 4.83332 15.3129 3.78088 13.5593 4.43868C12.8964 4.68725 12.6502 5.03258 11.8266 5.15569C11.0672 5.26923 10.5175 5.09594 9.9146 4.9466C8.93801 4.707 7.24144 4.39544 6.27021 4.49849L6.27023 4.49843Z" fill="#FA1919"/>
<path d="M16.611 13.6526C16.1279 15.8257 14.1613 18.2368 12.2938 18.3175C11.6043 18.3474 11.1613 18.0486 10.1712 18.2718C8.85437 18.5678 7.7036 19.5295 7.83357 19.8942C7.92316 20.1428 8.60344 20.1079 8.67004 20.1033C9.43395 20.0582 9.63081 19.5656 10.2274 19.4957C10.9046 19.4168 11.1926 19.9892 11.8573 20.2127C12.9842 20.5909 14.252 19.649 14.9598 19.1232C17.4394 17.2814 20.7751 12.4943 19.4499 7.83065C19.2169 7.01058 18.7891 5.58528 17.4199 4.70132C16.2623 3.95446 14.3767 3.56191 13.743 4.28308C12.5621 5.62562 17.5843 9.27481 16.611 13.6526Z" fill="#C40000"/>
<path d="M12.5621 20.8568C12.5589 20.8568 12.5552 20.8568 12.5514 20.8568C12.3752 20.8568 12.2054 20.8295 12.046 20.7789C11.8382 20.7128 11.644 20.5951 11.4565 20.4812C11.1392 20.2888 10.8393 20.1069 10.3721 20.0929C9.88633 20.0776 9.54696 20.2584 9.21803 20.4328C9.03428 20.5305 8.85951 20.6225 8.66687 20.6805C7.09668 21.1492 4.67327 19.1315 2.96832 16.9238C2.88054 16.8204 2.82715 16.6855 2.82715 16.5381C2.82715 16.2081 3.09467 15.9406 3.42466 15.9406C3.62544 15.9406 3.80308 16.0396 3.91142 16.1915C5.82043 18.6637 7.70015 19.7215 8.32363 19.5354C8.4037 19.5115 8.52647 19.4458 8.65612 19.3774C9.05706 19.1647 9.60584 18.8731 10.4083 18.8994C11.1892 18.9239 11.7009 19.2343 12.0747 19.461C12.2076 19.5417 12.3334 19.6179 12.4159 19.6439C12.8939 19.7947 14.3577 19.1139 16.1093 17.1275C17.3882 15.678 18.4078 13.9943 18.9799 12.3868C19.811 10.0518 19.4877 8.47529 19.0695 7.5638C18.7976 6.97167 18.3525 6.3309 17.879 5.84959C17.4539 5.41762 16.7737 4.87572 15.9455 4.74903C14.9277 4.59309 13.2078 4.9713 12.4407 5.193C12.3591 5.21659 12.2787 5.2408 12.1978 5.26527C11.7123 5.41166 11.1623 5.57775 10.39 5.58763C9.60017 5.59781 9.05078 5.44425 8.5193 5.29578C8.43566 5.27249 8.35139 5.24887 8.26625 5.22619C7.44884 5.00724 5.81028 4.66992 4.85281 4.79361C3.25156 5.00033 2.05058 6.66015 1.63949 7.50891C1.24902 8.31556 1.11431 9.26314 1.23918 10.3285C1.35449 11.3143 1.6873 12.3772 2.22503 13.4871C2.26281 13.5632 2.28488 13.6529 2.28488 13.7477C2.28488 14.0777 2.01733 14.3453 1.68732 14.3453C1.4521 14.3453 1.24865 14.2094 1.15115 14.0118C0.552109 12.7778 0.184049 11.5864 0.0531889 10.467C-0.0982643 9.17165 0.0741244 8.00086 0.56524 6.98726C1.11162 5.86011 2.5967 3.88033 4.70104 3.60817C6.07854 3.42893 8.17125 3.9631 8.57696 4.07184C8.66656 4.09575 8.75473 4.12059 8.84256 4.14506C9.33399 4.28248 9.75792 4.40108 10.376 4.39302C10.9798 4.38526 11.4046 4.25709 11.8542 4.12143C11.9394 4.09575 12.0245 4.07007 12.1106 4.04526C12.3636 3.97209 14.6248 3.33785 16.1281 3.56727C17.0399 3.70681 17.9406 4.20599 18.7326 5.01077C18.7866 5.06546 18.9005 5.17631 19.0468 5.33941C19.0468 5.33941 19.7238 6.10003 20.1572 7.06406C20.5997 8.04753 20.836 10.283 20.1295 12.7273C19.3943 15.2694 17.9415 16.991 17.0085 17.9168C17.0085 17.9168 16.1989 19.0751 14.4655 20.1709C13.7414 20.6273 13.1048 20.8568 12.5622 20.8568H12.5621Z" fill="black"/>
<path d="M2.52369 15.8447C2.31143 15.8445 2.12512 15.7337 2.01923 15.5668L2.00085 15.5377C1.94442 15.4481 1.91096 15.3392 1.91096 15.2225C1.91096 14.8925 2.17849 14.625 2.50847 14.625C2.71912 14.625 2.90427 14.734 3.01069 14.8987L3.02854 14.9274C3.08636 15.0177 3.12067 15.1279 3.12067 15.2461C3.12067 15.5759 2.85346 15.8433 2.52366 15.8436L2.52369 15.8447Z" fill="black"/>
<path d="M17.1768 1.95133C17.2589 1.43388 15.6143 0.312717 14.2073 0.662267C12.1815 1.16533 11.5577 4.48622 11.9828 4.75506C12.2675 4.93431 12.8868 3.65837 14.8045 2.80545C16.2163 2.17899 17.1171 2.3209 17.1768 1.95133Z" fill="#6BE166"/>
<path d="M11.7349 5.37168C11.5968 5.37139 11.4685 5.3301 11.3614 5.25936C10.9957 5.02814 10.8801 4.51965 11.0115 3.70796C11.1956 2.56914 11.9825 0.524838 13.7645 0.0824232C14.9254 -0.205876 16.253 0.304382 16.9643 0.957735C17.4522 1.40585 17.5072 1.79661 17.4674 2.04575C17.434 2.25484 17.3076 2.54259 16.8968 2.70986C16.7286 2.77855 16.5363 2.82039 16.2931 2.87328C15.9077 2.95726 15.3798 3.07225 14.7486 3.3528C13.6994 3.81942 13.0795 4.42019 12.669 4.81665C12.5083 4.97259 12.381 5.09567 12.2534 5.18737C12.1599 5.25606 11.9655 5.37171 11.7348 5.37171L11.7349 5.37168ZM14.4722 1.19256C14.4705 1.19256 14.4684 1.19256 14.4663 1.19256C14.3199 1.19256 14.1778 1.21062 14.042 1.24469C13.4213 1.39928 12.9893 1.946 12.7395 2.37737C12.4148 2.93211 12.1995 3.58828 12.1408 4.28899C13.2424 2.67479 14.4664 2.037 15.8219 1.76083C14.9849 1.9397 15.5934 1.80288 16.0033 1.71323C15.6849 1.48028 15.3029 1.31411 14.8883 1.24345C15.2797 1.32933 14.8944 1.19251 14.4722 1.19251L14.4722 1.19256Z" fill="black"/>
<path d="M10.1034 5.51746C9.86951 5.3908 9.71954 4.96478 9.85427 4.71081C9.98215 4.46884 10.2558 3.83131 10.0368 3.13851C9.92462 2.79455 9.72486 2.50491 9.46356 2.28638C9.59585 2.40089 9.54245 2.26594 9.54245 2.11847C9.54245 1.78838 9.81003 1.52075 10.1402 1.52075C10.3228 1.52075 10.4863 1.60267 10.596 1.73174C10.9569 2.15417 11.2046 2.68188 11.2878 3.26265C11.3295 3.26307 11.6279 4.62472 10.9106 5.26882C10.7012 5.45642 10.3356 5.64374 10.1034 5.51738L10.1034 5.51746Z" fill="black"/>
</svg>
