<svg width="18" height="19" viewBox="0 0 18 19" fill="none" xmlns="http://www.w3.org/2000/svg">
<path d="M9.28596 12.2726C10.6416 12.2726 11.7406 11.1736 11.7406 9.81801C11.7406 8.46237 10.6416 7.36341 9.28596 7.36341C7.93032 7.36341 6.83136 8.46237 6.83136 9.81801C6.83136 11.1736 7.93032 12.2726 9.28596 12.2726Z" stroke="#67ADEE" stroke-width="2"/>
<path d="M2.46316 8.7046C2.8498 8.94753 3.09857 9.36137 3.09857 9.81793C3.09856 10.2746 2.84979 10.6884 2.46316 10.9313C2.20006 11.0966 2.03054 11.2287 1.90994 11.3859C1.64573 11.7303 1.52913 12.1654 1.58579 12.5957C1.62827 12.9184 1.81888 13.2486 2.20011 13.9089C2.58135 14.5692 2.77197 14.8994 3.0302 15.0975C3.37451 15.3617 3.80968 15.4783 4.23997 15.4217C4.43637 15.3958 4.63552 15.3151 4.91018 15.1699C5.31394 14.9565 5.79679 14.948 6.19229 15.1764C6.58774 15.4048 6.82174 15.8271 6.8388 16.2834C6.85042 16.5939 6.88009 16.8068 6.9559 16.9898C7.12199 17.3908 7.44055 17.7094 7.84149 17.8755C8.14226 18 8.52346 18 9.28594 18C10.0484 18 10.4296 18 10.7304 17.8755C11.1313 17.7094 11.4499 17.3908 11.616 16.9898C11.6918 16.8068 11.7215 16.5939 11.7331 16.2835C11.7501 15.8271 11.9841 15.4048 12.3796 15.1764C12.7751 14.9481 13.2579 14.9566 13.6616 15.17C13.9363 15.3152 14.1355 15.3959 14.3319 15.4218C14.7621 15.4785 15.1973 15.3618 15.5416 15.0976C15.7999 14.8995 15.9905 14.5693 16.3718 13.909C16.5415 13.615 16.6735 13.3865 16.7713 13.1949M16.1087 10.9314C15.7221 10.6885 15.4733 10.2746 15.4732 9.81809C15.4732 9.36145 15.7221 8.94753 16.1087 8.7046C16.3718 8.53933 16.5412 8.40719 16.6618 8.25001C16.926 7.9057 17.0426 7.47053 16.986 7.04024C16.9435 6.71753 16.7529 6.38737 16.3716 5.72706C15.9904 5.06674 15.7998 4.73659 15.5416 4.53843C15.1973 4.27423 14.7621 4.15763 14.3318 4.21427C14.1354 4.24014 13.9363 4.32086 13.6616 4.46603C13.2578 4.67943 12.775 4.68794 12.3795 4.45959C11.9841 4.23127 11.7501 3.80891 11.7331 3.35263C11.7215 3.04211 11.6918 2.82924 11.616 2.64619C11.4499 2.24524 11.1313 1.92667 10.7304 1.76058C10.4296 1.63602 10.0484 1.63602 9.28594 1.63602C8.52346 1.63602 8.14226 1.63602 7.84149 1.76058C7.44055 1.92667 7.12199 2.24524 6.9559 2.64619C6.88009 2.82922 6.85042 3.04208 6.8388 3.35255C6.82173 3.80888 6.58772 4.23127 6.19225 4.45959C5.79678 4.68792 5.31397 4.67938 4.91025 4.46601C4.63556 4.32083 4.43639 4.24009 4.23998 4.21423C3.80969 4.15759 3.37452 4.27419 3.03021 4.53839C2.77198 4.73654 2.58136 5.0667 2.20012 5.72702C2.0304 6.02099 1.89846 6.24951 1.80055 6.44108" stroke="#67ADEE" stroke-width="2" stroke-linecap="round"/>
</svg>
